<mxfile host="Electron" modified="2023-10-06T04:46:05.071Z" agent="Mozilla/5.0 (X11; Linux x86_64) AppleWebKit/537.36 (KHTML, like Gecko) draw.io/22.0.0 Chrome/114.0.5735.289 Electron/25.8.3 Safari/537.36" etag="cytVhAeandoVZhMvTg7H" version="22.0.0" type="device">
  <diagram name="Page-1" id="6HZe9GUc9M1Z2Dn9TJjh">
    <mxGraphModel dx="1434" dy="823" grid="1" gridSize="10" guides="1" tooltips="1" connect="1" arrows="1" fold="1" page="1" pageScale="1" pageWidth="827" pageHeight="1169" math="0" shadow="0">
      <root>
        <mxCell id="0" />
        <mxCell id="1" parent="0" />
        <mxCell id="26Q8tdASBBlSuqGMHOL5-4" value="&lt;b&gt;Generate Port F Interrupt&lt;/b&gt;" style="rounded=1;whiteSpace=wrap;html=1;" parent="1" vertex="1">
          <mxGeometry x="160" y="960" width="80" height="60" as="geometry" />
        </mxCell>
        <mxCell id="26Q8tdASBBlSuqGMHOL5-6" value="&lt;b&gt;Transmit 0xF0&lt;br&gt;on UART Tx&lt;br&gt;&lt;/b&gt;" style="rounded=1;whiteSpace=wrap;html=1;" parent="1" vertex="1">
          <mxGeometry x="40" y="1080" width="80" height="60" as="geometry" />
        </mxCell>
        <mxCell id="26Q8tdASBBlSuqGMHOL5-9" value="" style="endArrow=classic;html=1;rounded=0;exitX=0;exitY=1;exitDx=0;exitDy=0;entryX=0.5;entryY=0;entryDx=0;entryDy=0;" parent="1" source="26Q8tdASBBlSuqGMHOL5-22" target="26Q8tdASBBlSuqGMHOL5-4" edge="1">
          <mxGeometry width="50" height="50" relative="1" as="geometry">
            <mxPoint x="200" y="880" as="sourcePoint" />
            <mxPoint x="200" y="960" as="targetPoint" />
          </mxGeometry>
        </mxCell>
        <mxCell id="26Q8tdASBBlSuqGMHOL5-10" value="&lt;b style=&quot;border-color: var(--border-color);&quot;&gt;User Switch 1 or 2 Pressed&lt;/b&gt;" style="text;html=1;strokeColor=none;fillColor=none;align=center;verticalAlign=middle;whiteSpace=wrap;rounded=0;" parent="1" vertex="1">
          <mxGeometry x="230" y="870" width="80" height="30" as="geometry" />
        </mxCell>
        <mxCell id="26Q8tdASBBlSuqGMHOL5-11" value="&lt;b style=&quot;border-color: var(--border-color);&quot;&gt;User Switch 1 Pressed&lt;/b&gt;" style="text;html=1;strokeColor=none;fillColor=none;align=center;verticalAlign=middle;whiteSpace=wrap;rounded=0;" parent="1" vertex="1">
          <mxGeometry x="70" y="1020" width="80" height="30" as="geometry" />
        </mxCell>
        <mxCell id="26Q8tdASBBlSuqGMHOL5-13" value="" style="endArrow=classic;html=1;rounded=0;exitX=0;exitY=1;exitDx=0;exitDy=0;entryX=1;entryY=0;entryDx=0;entryDy=0;" parent="1" source="26Q8tdASBBlSuqGMHOL5-4" target="26Q8tdASBBlSuqGMHOL5-6" edge="1">
          <mxGeometry width="50" height="50" relative="1" as="geometry">
            <mxPoint x="200" y="1090" as="sourcePoint" />
            <mxPoint x="200" y="1170" as="targetPoint" />
          </mxGeometry>
        </mxCell>
        <mxCell id="26Q8tdASBBlSuqGMHOL5-14" value="&lt;b&gt;Transmit 0xAA&lt;br&gt;on UART Tx&lt;br&gt;&lt;/b&gt;" style="rounded=1;whiteSpace=wrap;html=1;" parent="1" vertex="1">
          <mxGeometry x="280" y="1080" width="80" height="60" as="geometry" />
        </mxCell>
        <mxCell id="26Q8tdASBBlSuqGMHOL5-15" value="" style="endArrow=classic;html=1;rounded=0;exitX=1;exitY=1;exitDx=0;exitDy=0;entryX=0;entryY=0;entryDx=0;entryDy=0;" parent="1" source="26Q8tdASBBlSuqGMHOL5-4" target="26Q8tdASBBlSuqGMHOL5-14" edge="1">
          <mxGeometry width="50" height="50" relative="1" as="geometry">
            <mxPoint x="170" y="1030" as="sourcePoint" />
            <mxPoint x="130" y="1070" as="targetPoint" />
          </mxGeometry>
        </mxCell>
        <mxCell id="26Q8tdASBBlSuqGMHOL5-16" value="&lt;b style=&quot;border-color: var(--border-color);&quot;&gt;User Switch 2 Pressed&lt;/b&gt;" style="text;html=1;strokeColor=none;fillColor=none;align=center;verticalAlign=middle;whiteSpace=wrap;rounded=0;" parent="1" vertex="1">
          <mxGeometry x="254" y="1020" width="80" height="30" as="geometry" />
        </mxCell>
        <mxCell id="26Q8tdASBBlSuqGMHOL5-17" value="&lt;b&gt;End&lt;/b&gt;" style="rounded=1;whiteSpace=wrap;html=1;" parent="1" vertex="1">
          <mxGeometry x="160" y="1180" width="80" height="40" as="geometry" />
        </mxCell>
        <mxCell id="26Q8tdASBBlSuqGMHOL5-18" value="" style="endArrow=classic;html=1;rounded=0;exitX=1;exitY=1;exitDx=0;exitDy=0;entryX=0;entryY=0;entryDx=0;entryDy=0;" parent="1" source="26Q8tdASBBlSuqGMHOL5-6" target="26Q8tdASBBlSuqGMHOL5-17" edge="1">
          <mxGeometry width="50" height="50" relative="1" as="geometry">
            <mxPoint x="150" y="1140" as="sourcePoint" />
            <mxPoint x="110" y="1180" as="targetPoint" />
          </mxGeometry>
        </mxCell>
        <mxCell id="26Q8tdASBBlSuqGMHOL5-19" value="" style="endArrow=classic;html=1;rounded=0;exitX=0;exitY=1;exitDx=0;exitDy=0;entryX=1;entryY=0;entryDx=0;entryDy=0;" parent="1" source="26Q8tdASBBlSuqGMHOL5-14" target="26Q8tdASBBlSuqGMHOL5-17" edge="1">
          <mxGeometry width="50" height="50" relative="1" as="geometry">
            <mxPoint x="180" y="1060" as="sourcePoint" />
            <mxPoint x="140" y="1100" as="targetPoint" />
          </mxGeometry>
        </mxCell>
        <mxCell id="26Q8tdASBBlSuqGMHOL5-20" value="&lt;b&gt;Generate UART Interrupt&lt;/b&gt;" style="rounded=1;whiteSpace=wrap;html=1;" parent="1" vertex="1">
          <mxGeometry x="560" y="960" width="80" height="60" as="geometry" />
        </mxCell>
        <mxCell id="26Q8tdASBBlSuqGMHOL5-22" value="&lt;b&gt;Start&lt;/b&gt;" style="rounded=1;whiteSpace=wrap;html=1;" parent="1" vertex="1">
          <mxGeometry x="360" y="830" width="80" height="40" as="geometry" />
        </mxCell>
        <mxCell id="26Q8tdASBBlSuqGMHOL5-23" value="" style="endArrow=classic;html=1;rounded=0;exitX=1;exitY=1;exitDx=0;exitDy=0;entryX=0;entryY=0;entryDx=0;entryDy=0;" parent="1" source="26Q8tdASBBlSuqGMHOL5-22" target="26Q8tdASBBlSuqGMHOL5-20" edge="1">
          <mxGeometry width="50" height="50" relative="1" as="geometry">
            <mxPoint x="370" y="880" as="sourcePoint" />
            <mxPoint x="210" y="970" as="targetPoint" />
          </mxGeometry>
        </mxCell>
        <mxCell id="26Q8tdASBBlSuqGMHOL5-24" value="&lt;b style=&quot;border-color: var(--border-color);&quot;&gt;Signal Recieved on&lt;br&gt;Rx Pin&lt;br&gt;&lt;/b&gt;" style="text;html=1;strokeColor=none;fillColor=none;align=center;verticalAlign=middle;whiteSpace=wrap;rounded=0;" parent="1" vertex="1">
          <mxGeometry x="470" y="870" width="80" height="30" as="geometry" />
        </mxCell>
        <mxCell id="26Q8tdASBBlSuqGMHOL5-25" value="&lt;b&gt;Toggle&lt;br&gt;Green LED&lt;br&gt;On&lt;br&gt;&lt;/b&gt;" style="rounded=1;whiteSpace=wrap;html=1;" parent="1" vertex="1">
          <mxGeometry x="400" y="1080" width="80" height="60" as="geometry" />
        </mxCell>
        <mxCell id="26Q8tdASBBlSuqGMHOL5-26" value="&lt;b&gt;Toggle&lt;br&gt;Blue LED&lt;br&gt;On&lt;br&gt;&lt;/b&gt;" style="rounded=1;whiteSpace=wrap;html=1;" parent="1" vertex="1">
          <mxGeometry x="560" y="1080" width="80" height="60" as="geometry" />
        </mxCell>
        <mxCell id="26Q8tdASBBlSuqGMHOL5-27" value="&lt;b&gt;Toggle&lt;br&gt;Red LED&lt;br&gt;On&lt;br&gt;&lt;/b&gt;" style="rounded=1;whiteSpace=wrap;html=1;" parent="1" vertex="1">
          <mxGeometry x="720" y="1080" width="80" height="60" as="geometry" />
        </mxCell>
        <mxCell id="26Q8tdASBBlSuqGMHOL5-28" value="" style="endArrow=classic;html=1;rounded=0;exitX=0;exitY=1;exitDx=0;exitDy=0;entryX=1;entryY=0;entryDx=0;entryDy=0;" parent="1" source="26Q8tdASBBlSuqGMHOL5-20" target="26Q8tdASBBlSuqGMHOL5-25" edge="1">
          <mxGeometry width="50" height="50" relative="1" as="geometry">
            <mxPoint x="490" y="1000" as="sourcePoint" />
            <mxPoint x="530" y="1040" as="targetPoint" />
          </mxGeometry>
        </mxCell>
        <mxCell id="26Q8tdASBBlSuqGMHOL5-29" value="" style="endArrow=classic;html=1;rounded=0;exitX=0.493;exitY=1.074;exitDx=0;exitDy=0;entryX=0.5;entryY=0;entryDx=0;entryDy=0;exitPerimeter=0;" parent="1" source="26Q8tdASBBlSuqGMHOL5-20" target="26Q8tdASBBlSuqGMHOL5-26" edge="1">
          <mxGeometry width="50" height="50" relative="1" as="geometry">
            <mxPoint x="600" y="1040" as="sourcePoint" />
            <mxPoint x="640" y="1080" as="targetPoint" />
          </mxGeometry>
        </mxCell>
        <mxCell id="26Q8tdASBBlSuqGMHOL5-30" value="" style="endArrow=classic;html=1;rounded=0;exitX=1;exitY=1;exitDx=0;exitDy=0;entryX=0;entryY=0;entryDx=0;entryDy=0;" parent="1" source="26Q8tdASBBlSuqGMHOL5-20" target="26Q8tdASBBlSuqGMHOL5-27" edge="1">
          <mxGeometry width="50" height="50" relative="1" as="geometry">
            <mxPoint x="650" y="1020" as="sourcePoint" />
            <mxPoint x="690" y="1060" as="targetPoint" />
          </mxGeometry>
        </mxCell>
        <mxCell id="26Q8tdASBBlSuqGMHOL5-31" value="&lt;b style=&quot;border-color: var(--border-color);&quot;&gt;0xAA&lt;br&gt;Recieved&lt;br&gt;&lt;/b&gt;" style="text;html=1;strokeColor=none;fillColor=none;align=center;verticalAlign=middle;whiteSpace=wrap;rounded=0;" parent="1" vertex="1">
          <mxGeometry x="440" y="1020" width="80" height="30" as="geometry" />
        </mxCell>
        <mxCell id="26Q8tdASBBlSuqGMHOL5-32" value="&lt;b style=&quot;border-color: var(--border-color);&quot;&gt;0xF0&lt;br&gt;Recieved&lt;br&gt;&lt;/b&gt;" style="text;html=1;strokeColor=none;fillColor=none;align=center;verticalAlign=middle;whiteSpace=wrap;rounded=0;" parent="1" vertex="1">
          <mxGeometry x="530" y="1040" width="80" height="30" as="geometry" />
        </mxCell>
        <mxCell id="26Q8tdASBBlSuqGMHOL5-33" value="&lt;b style=&quot;border-color: var(--border-color);&quot;&gt;Incomplete Signal Recieved&lt;br&gt;&lt;/b&gt;" style="text;html=1;strokeColor=none;fillColor=none;align=center;verticalAlign=middle;whiteSpace=wrap;rounded=0;" parent="1" vertex="1">
          <mxGeometry x="690" y="1030" width="80" height="30" as="geometry" />
        </mxCell>
        <mxCell id="26Q8tdASBBlSuqGMHOL5-34" value="&lt;b&gt;Enable&lt;br&gt;Systick for 0.5 Seconds&lt;br&gt;&lt;/b&gt;" style="rounded=1;whiteSpace=wrap;html=1;" parent="1" vertex="1">
          <mxGeometry x="560" y="1200" width="80" height="60" as="geometry" />
        </mxCell>
        <mxCell id="26Q8tdASBBlSuqGMHOL5-35" value="" style="endArrow=classic;html=1;rounded=0;exitX=1;exitY=1;exitDx=0;exitDy=0;entryX=0;entryY=0;entryDx=0;entryDy=0;" parent="1" source="26Q8tdASBBlSuqGMHOL5-25" target="26Q8tdASBBlSuqGMHOL5-34" edge="1">
          <mxGeometry width="50" height="50" relative="1" as="geometry">
            <mxPoint x="570" y="1030" as="sourcePoint" />
            <mxPoint x="490" y="1090" as="targetPoint" />
          </mxGeometry>
        </mxCell>
        <mxCell id="26Q8tdASBBlSuqGMHOL5-36" value="" style="endArrow=classic;html=1;rounded=0;exitX=0.5;exitY=1;exitDx=0;exitDy=0;entryX=0.5;entryY=0;entryDx=0;entryDy=0;" parent="1" source="26Q8tdASBBlSuqGMHOL5-26" target="26Q8tdASBBlSuqGMHOL5-34" edge="1">
          <mxGeometry width="50" height="50" relative="1" as="geometry">
            <mxPoint x="640" y="1160" as="sourcePoint" />
            <mxPoint x="641" y="1216" as="targetPoint" />
          </mxGeometry>
        </mxCell>
        <mxCell id="26Q8tdASBBlSuqGMHOL5-37" value="" style="endArrow=classic;html=1;rounded=0;entryX=1;entryY=0;entryDx=0;entryDy=0;exitX=0;exitY=1;exitDx=0;exitDy=0;" parent="1" source="26Q8tdASBBlSuqGMHOL5-27" target="26Q8tdASBBlSuqGMHOL5-34" edge="1">
          <mxGeometry width="50" height="50" relative="1" as="geometry">
            <mxPoint x="710" y="1140" as="sourcePoint" />
            <mxPoint x="620" y="1100" as="targetPoint" />
          </mxGeometry>
        </mxCell>
        <mxCell id="26Q8tdASBBlSuqGMHOL5-38" value="&lt;b&gt;Generate&lt;br&gt;Systick Interrupt&lt;br&gt;&lt;/b&gt;" style="rounded=1;whiteSpace=wrap;html=1;" parent="1" vertex="1">
          <mxGeometry x="560" y="1320" width="80" height="60" as="geometry" />
        </mxCell>
        <mxCell id="26Q8tdASBBlSuqGMHOL5-39" value="" style="endArrow=classic;html=1;rounded=0;exitX=0.5;exitY=1;exitDx=0;exitDy=0;entryX=0.5;entryY=0;entryDx=0;entryDy=0;" parent="1" source="26Q8tdASBBlSuqGMHOL5-34" target="26Q8tdASBBlSuqGMHOL5-38" edge="1">
          <mxGeometry width="50" height="50" relative="1" as="geometry">
            <mxPoint x="700" y="1310" as="sourcePoint" />
            <mxPoint x="600" y="1310" as="targetPoint" />
          </mxGeometry>
        </mxCell>
        <mxCell id="26Q8tdASBBlSuqGMHOL5-40" value="&lt;b style=&quot;border-color: var(--border-color);&quot;&gt;0.5 Sec&lt;br&gt;Delay&lt;br&gt;&lt;/b&gt;" style="text;html=1;strokeColor=none;fillColor=none;align=center;verticalAlign=middle;whiteSpace=wrap;rounded=0;" parent="1" vertex="1">
          <mxGeometry x="590" y="1270" width="80" height="30" as="geometry" />
        </mxCell>
        <mxCell id="26Q8tdASBBlSuqGMHOL5-41" value="&lt;b&gt;Toggle LED Off&lt;br&gt;Clear Interrupts&lt;br&gt;Clear UART Flags&lt;br&gt;&lt;/b&gt;" style="rounded=1;whiteSpace=wrap;html=1;" parent="1" vertex="1">
          <mxGeometry x="545" y="1440" width="110" height="60" as="geometry" />
        </mxCell>
        <mxCell id="26Q8tdASBBlSuqGMHOL5-43" value="" style="endArrow=classic;html=1;rounded=0;entryX=0.5;entryY=0;entryDx=0;entryDy=0;exitX=0.5;exitY=1;exitDx=0;exitDy=0;" parent="1" source="26Q8tdASBBlSuqGMHOL5-38" target="26Q8tdASBBlSuqGMHOL5-41" edge="1">
          <mxGeometry width="50" height="50" relative="1" as="geometry">
            <mxPoint x="730" y="1330" as="sourcePoint" />
            <mxPoint x="650" y="1390" as="targetPoint" />
          </mxGeometry>
        </mxCell>
        <mxCell id="26Q8tdASBBlSuqGMHOL5-44" value="&lt;b&gt;End&lt;/b&gt;" style="rounded=1;whiteSpace=wrap;html=1;" parent="1" vertex="1">
          <mxGeometry x="560" y="1540" width="80" height="40" as="geometry" />
        </mxCell>
        <mxCell id="26Q8tdASBBlSuqGMHOL5-45" value="" style="endArrow=classic;html=1;rounded=0;entryX=0.5;entryY=0;entryDx=0;entryDy=0;exitX=0.5;exitY=1;exitDx=0;exitDy=0;" parent="1" source="26Q8tdASBBlSuqGMHOL5-41" target="26Q8tdASBBlSuqGMHOL5-44" edge="1">
          <mxGeometry width="50" height="50" relative="1" as="geometry">
            <mxPoint x="740" y="1470" as="sourcePoint" />
            <mxPoint x="740" y="1530" as="targetPoint" />
          </mxGeometry>
        </mxCell>
      </root>
    </mxGraphModel>
  </diagram>
</mxfile>
